<?xml version="1.0" encoding="utf-8" standalone="no"?>
<!DOCTYPE svg PUBLIC "-//W3C//DTD SVG 1.1//EN"
  "http://www.w3.org/Graphics/SVG/1.1/DTD/svg11.dtd">
<!-- Created with matplotlib (https://matplotlib.org/) -->
<svg height="367.38275pt" version="1.1" viewBox="0 0 1009.78475 367.38275" width="1009.78475pt" xmlns="http://www.w3.org/2000/svg" xmlns:xlink="http://www.w3.org/1999/xlink">
 <metadata>
  <rdf:RDF xmlns:cc="http://creativecommons.org/ns#" xmlns:dc="http://purl.org/dc/elements/1.1/" xmlns:rdf="http://www.w3.org/1999/02/22-rdf-syntax-ns#">
   <cc:Work>
    <dc:type rdf:resource="http://purl.org/dc/dcmitype/StillImage"/>
    <dc:date>2021-12-13T14:13:53.805298</dc:date>
    <dc:format>image/svg+xml</dc:format>
    <dc:creator>
     <cc:Agent>
      <dc:title>Matplotlib v3.3.4, https://matplotlib.org/</dc:title>
     </cc:Agent>
    </dc:creator>
   </cc:Work>
  </rdf:RDF>
 </metadata>
 <defs>
  <style type="text/css">*{stroke-linecap:butt;stroke-linejoin:round;}</style>
 </defs>
 <g id="figure_1">
  <g id="patch_1">
   <path d="M -0 367.38275 
L 1009.78475 367.38275 
L 1009.78475 0 
L -0 0 
z
" style="fill:#ffffff;"/>
  </g>
  <g id="axes_1">
   <g id="patch_2">
    <path d="M 53.98475 315.9 
L 485.166568 315.9 
L 485.166568 71.28 
L 53.98475 71.28 
z
" style="fill:#ffffff;"/>
   </g>
   <g id="matplotlib.axis_1">
    <g id="xtick_1">
     <g id="line2d_1">
      <path clip-path="url(#p54438b5423)" d="M 71.604209 315.9 
L 71.604209 71.28 
" style="fill:none;stroke:#cccccc;stroke-linecap:round;stroke-opacity:0.2;stroke-width:0.8;"/>
     </g>
     <g id="text_1">
      <!-- 0 -->
      <g style="fill:#262626;" transform="translate(67.600334 339.80725)scale(0.144 -0.144)">
       <defs>
        <path d="M 4.15625 35.296875 
Q 4.15625 48 6.765625 55.734375 
Q 9.375 63.484375 14.515625 67.671875 
Q 19.671875 71.875 27.484375 71.875 
Q 33.25 71.875 37.59375 69.546875 
Q 41.9375 67.234375 44.765625 62.859375 
Q 47.609375 58.5 49.21875 52.21875 
Q 50.828125 45.953125 50.828125 35.296875 
Q 50.828125 22.703125 48.234375 14.96875 
Q 45.65625 7.234375 40.5 3 
Q 35.359375 -1.21875 27.484375 -1.21875 
Q 17.140625 -1.21875 11.234375 6.203125 
Q 4.15625 15.140625 4.15625 35.296875 
z
M 13.1875 35.296875 
Q 13.1875 17.671875 17.3125 11.828125 
Q 21.4375 6 27.484375 6 
Q 33.546875 6 37.671875 11.859375 
Q 41.796875 17.71875 41.796875 35.296875 
Q 41.796875 52.984375 37.671875 58.78125 
Q 33.546875 64.59375 27.390625 64.59375 
Q 21.34375 64.59375 17.71875 59.46875 
Q 13.1875 52.9375 13.1875 35.296875 
z
" id="ArialMT-48"/>
       </defs>
       <use xlink:href="#ArialMT-48"/>
      </g>
     </g>
    </g>
    <g id="xtick_2">
     <g id="line2d_2">
      <path clip-path="url(#p54438b5423)" d="M 121.097072 315.9 
L 121.097072 71.28 
" style="fill:none;stroke:#cccccc;stroke-linecap:round;stroke-opacity:0.2;stroke-width:0.8;"/>
     </g>
     <g id="text_2">
      <!-- 25 -->
      <g style="fill:#262626;" transform="translate(113.089322 339.80725)scale(0.144 -0.144)">
       <defs>
        <path d="M 50.34375 8.453125 
L 50.34375 0 
L 3.03125 0 
Q 2.9375 3.171875 4.046875 6.109375 
Q 5.859375 10.9375 9.828125 15.625 
Q 13.8125 20.3125 21.34375 26.46875 
Q 33.015625 36.03125 37.109375 41.625 
Q 41.21875 47.21875 41.21875 52.203125 
Q 41.21875 57.421875 37.46875 61 
Q 33.734375 64.59375 27.734375 64.59375 
Q 21.390625 64.59375 17.578125 60.78125 
Q 13.765625 56.984375 13.71875 50.25 
L 4.6875 51.171875 
Q 5.609375 61.28125 11.65625 66.578125 
Q 17.71875 71.875 27.9375 71.875 
Q 38.234375 71.875 44.234375 66.15625 
Q 50.25 60.453125 50.25 52 
Q 50.25 47.703125 48.484375 43.546875 
Q 46.734375 39.40625 42.65625 34.8125 
Q 38.578125 30.21875 29.109375 22.21875 
Q 21.1875 15.578125 18.9375 13.203125 
Q 16.703125 10.84375 15.234375 8.453125 
z
" id="ArialMT-50"/>
        <path d="M 4.15625 18.75 
L 13.375 19.53125 
Q 14.40625 12.796875 18.140625 9.390625 
Q 21.875 6 27.15625 6 
Q 33.5 6 37.890625 10.78125 
Q 42.28125 15.578125 42.28125 23.484375 
Q 42.28125 31 38.0625 35.34375 
Q 33.84375 39.703125 27 39.703125 
Q 22.75 39.703125 19.328125 37.765625 
Q 15.921875 35.84375 13.96875 32.765625 
L 5.71875 33.84375 
L 12.640625 70.609375 
L 48.25 70.609375 
L 48.25 62.203125 
L 19.671875 62.203125 
L 15.828125 42.96875 
Q 22.265625 47.46875 29.34375 47.46875 
Q 38.71875 47.46875 45.15625 40.96875 
Q 51.609375 34.46875 51.609375 24.265625 
Q 51.609375 14.546875 45.953125 7.46875 
Q 39.0625 -1.21875 27.15625 -1.21875 
Q 17.390625 -1.21875 11.203125 4.25 
Q 5.03125 9.71875 4.15625 18.75 
z
" id="ArialMT-53"/>
       </defs>
       <use xlink:href="#ArialMT-50"/>
       <use x="55.615234" xlink:href="#ArialMT-53"/>
      </g>
     </g>
    </g>
    <g id="xtick_3">
     <g id="line2d_3">
      <path clip-path="url(#p54438b5423)" d="M 170.589934 315.9 
L 170.589934 71.28 
" style="fill:none;stroke:#cccccc;stroke-linecap:round;stroke-opacity:0.2;stroke-width:0.8;"/>
     </g>
     <g id="text_3">
      <!-- 50 -->
      <g style="fill:#262626;" transform="translate(162.582184 339.80725)scale(0.144 -0.144)">
       <use xlink:href="#ArialMT-53"/>
       <use x="55.615234" xlink:href="#ArialMT-48"/>
      </g>
     </g>
    </g>
    <g id="xtick_4">
     <g id="line2d_4">
      <path clip-path="url(#p54438b5423)" d="M 220.082797 315.9 
L 220.082797 71.28 
" style="fill:none;stroke:#cccccc;stroke-linecap:round;stroke-opacity:0.2;stroke-width:0.8;"/>
     </g>
     <g id="text_4">
      <!-- 75 -->
      <g style="fill:#262626;" transform="translate(212.075047 339.80725)scale(0.144 -0.144)">
       <defs>
        <path d="M 4.734375 62.203125 
L 4.734375 70.65625 
L 51.078125 70.65625 
L 51.078125 63.8125 
Q 44.234375 56.546875 37.515625 44.484375 
Q 30.8125 32.421875 27.15625 19.671875 
Q 24.515625 10.6875 23.78125 0 
L 14.75 0 
Q 14.890625 8.453125 18.0625 20.40625 
Q 21.234375 32.375 27.171875 43.484375 
Q 33.109375 54.59375 39.796875 62.203125 
z
" id="ArialMT-55"/>
       </defs>
       <use xlink:href="#ArialMT-55"/>
       <use x="55.615234" xlink:href="#ArialMT-53"/>
      </g>
     </g>
    </g>
    <g id="xtick_5">
     <g id="line2d_5">
      <path clip-path="url(#p54438b5423)" d="M 269.575659 315.9 
L 269.575659 71.28 
" style="fill:none;stroke:#cccccc;stroke-linecap:round;stroke-opacity:0.2;stroke-width:0.8;"/>
     </g>
     <g id="text_5">
      <!-- 100 -->
      <g style="fill:#262626;" transform="translate(257.564034 339.80725)scale(0.144 -0.144)">
       <defs>
        <path d="M 37.25 0 
L 28.46875 0 
L 28.46875 56 
Q 25.296875 52.984375 20.140625 49.953125 
Q 14.984375 46.921875 10.890625 45.40625 
L 10.890625 53.90625 
Q 18.265625 57.375 23.78125 62.296875 
Q 29.296875 67.234375 31.59375 71.875 
L 37.25 71.875 
z
" id="ArialMT-49"/>
       </defs>
       <use xlink:href="#ArialMT-49"/>
       <use x="55.615234" xlink:href="#ArialMT-48"/>
       <use x="111.230469" xlink:href="#ArialMT-48"/>
      </g>
     </g>
    </g>
    <g id="xtick_6">
     <g id="line2d_6">
      <path clip-path="url(#p54438b5423)" d="M 319.068522 315.9 
L 319.068522 71.28 
" style="fill:none;stroke:#cccccc;stroke-linecap:round;stroke-opacity:0.2;stroke-width:0.8;"/>
     </g>
     <g id="text_6">
      <!-- 125 -->
      <g style="fill:#262626;" transform="translate(307.056897 339.80725)scale(0.144 -0.144)">
       <use xlink:href="#ArialMT-49"/>
       <use x="55.615234" xlink:href="#ArialMT-50"/>
       <use x="111.230469" xlink:href="#ArialMT-53"/>
      </g>
     </g>
    </g>
    <g id="xtick_7">
     <g id="line2d_7">
      <path clip-path="url(#p54438b5423)" d="M 368.561384 315.9 
L 368.561384 71.28 
" style="fill:none;stroke:#cccccc;stroke-linecap:round;stroke-opacity:0.2;stroke-width:0.8;"/>
     </g>
     <g id="text_7">
      <!-- 150 -->
      <g style="fill:#262626;" transform="translate(356.549759 339.80725)scale(0.144 -0.144)">
       <use xlink:href="#ArialMT-49"/>
       <use x="55.615234" xlink:href="#ArialMT-53"/>
       <use x="111.230469" xlink:href="#ArialMT-48"/>
      </g>
     </g>
    </g>
    <g id="xtick_8">
     <g id="line2d_8">
      <path clip-path="url(#p54438b5423)" d="M 418.054247 315.9 
L 418.054247 71.28 
" style="fill:none;stroke:#cccccc;stroke-linecap:round;stroke-opacity:0.2;stroke-width:0.8;"/>
     </g>
     <g id="text_8">
      <!-- 175 -->
      <g style="fill:#262626;" transform="translate(406.042622 339.80725)scale(0.144 -0.144)">
       <use xlink:href="#ArialMT-49"/>
       <use x="55.615234" xlink:href="#ArialMT-55"/>
       <use x="111.230469" xlink:href="#ArialMT-53"/>
      </g>
     </g>
    </g>
    <g id="xtick_9">
     <g id="line2d_9">
      <path clip-path="url(#p54438b5423)" d="M 467.547109 315.9 
L 467.547109 71.28 
" style="fill:none;stroke:#cccccc;stroke-linecap:round;stroke-opacity:0.2;stroke-width:0.8;"/>
     </g>
     <g id="text_9">
      <!-- 200 -->
      <g style="fill:#262626;" transform="translate(455.535484 339.80725)scale(0.144 -0.144)">
       <use xlink:href="#ArialMT-50"/>
       <use x="55.615234" xlink:href="#ArialMT-48"/>
       <use x="111.230469" xlink:href="#ArialMT-48"/>
      </g>
     </g>
    </g>
    <g id="text_10">
     <!-- Number of Frames (in millions) -->
     <g style="fill:#262626;" transform="translate(171.161784 357.152)scale(0.144 -0.144)">
      <defs>
       <path d="M 7.625 0 
L 7.625 71.578125 
L 17.328125 71.578125 
L 54.9375 15.375 
L 54.9375 71.578125 
L 64.015625 71.578125 
L 64.015625 0 
L 54.296875 0 
L 16.703125 56.25 
L 16.703125 0 
z
" id="ArialMT-78"/>
       <path d="M 40.578125 0 
L 40.578125 7.625 
Q 34.515625 -1.171875 24.125 -1.171875 
Q 19.53125 -1.171875 15.546875 0.578125 
Q 11.578125 2.34375 9.640625 5 
Q 7.71875 7.671875 6.9375 11.53125 
Q 6.390625 14.109375 6.390625 19.734375 
L 6.390625 51.859375 
L 15.1875 51.859375 
L 15.1875 23.09375 
Q 15.1875 16.21875 15.71875 13.8125 
Q 16.546875 10.359375 19.234375 8.375 
Q 21.921875 6.390625 25.875 6.390625 
Q 29.828125 6.390625 33.296875 8.421875 
Q 36.765625 10.453125 38.203125 13.9375 
Q 39.65625 17.4375 39.65625 24.078125 
L 39.65625 51.859375 
L 48.4375 51.859375 
L 48.4375 0 
z
" id="ArialMT-117"/>
       <path d="M 6.59375 0 
L 6.59375 51.859375 
L 14.453125 51.859375 
L 14.453125 44.578125 
Q 16.890625 48.390625 20.9375 50.703125 
Q 25 53.03125 30.171875 53.03125 
Q 35.9375 53.03125 39.625 50.640625 
Q 43.3125 48.25 44.828125 43.953125 
Q 50.984375 53.03125 60.84375 53.03125 
Q 68.5625 53.03125 72.703125 48.75 
Q 76.859375 44.484375 76.859375 35.59375 
L 76.859375 0 
L 68.109375 0 
L 68.109375 32.671875 
Q 68.109375 37.9375 67.25 40.25 
Q 66.40625 42.578125 64.15625 43.984375 
Q 61.921875 45.40625 58.890625 45.40625 
Q 53.421875 45.40625 49.796875 41.765625 
Q 46.1875 38.140625 46.1875 30.125 
L 46.1875 0 
L 37.40625 0 
L 37.40625 33.6875 
Q 37.40625 39.546875 35.25 42.46875 
Q 33.109375 45.40625 28.21875 45.40625 
Q 24.515625 45.40625 21.359375 43.453125 
Q 18.21875 41.5 16.796875 37.734375 
Q 15.375 33.984375 15.375 26.90625 
L 15.375 0 
z
" id="ArialMT-109"/>
       <path d="M 14.703125 0 
L 6.546875 0 
L 6.546875 71.578125 
L 15.328125 71.578125 
L 15.328125 46.046875 
Q 20.90625 53.03125 29.546875 53.03125 
Q 34.328125 53.03125 38.59375 51.09375 
Q 42.875 49.171875 45.625 45.671875 
Q 48.390625 42.1875 49.953125 37.25 
Q 51.515625 32.328125 51.515625 26.703125 
Q 51.515625 13.375 44.921875 6.09375 
Q 38.328125 -1.171875 29.109375 -1.171875 
Q 19.921875 -1.171875 14.703125 6.5 
z
M 14.59375 26.3125 
Q 14.59375 17 17.140625 12.84375 
Q 21.296875 6.0625 28.375 6.0625 
Q 34.125 6.0625 38.328125 11.0625 
Q 42.53125 16.0625 42.53125 25.984375 
Q 42.53125 36.140625 38.5 40.96875 
Q 34.46875 45.796875 28.765625 45.796875 
Q 23 45.796875 18.796875 40.796875 
Q 14.59375 35.796875 14.59375 26.3125 
z
" id="ArialMT-98"/>
       <path d="M 42.09375 16.703125 
L 51.171875 15.578125 
Q 49.03125 7.625 43.21875 3.21875 
Q 37.40625 -1.171875 28.375 -1.171875 
Q 17 -1.171875 10.328125 5.828125 
Q 3.65625 12.84375 3.65625 25.484375 
Q 3.65625 38.578125 10.390625 45.796875 
Q 17.140625 53.03125 27.875 53.03125 
Q 38.28125 53.03125 44.875 45.953125 
Q 51.46875 38.875 51.46875 26.03125 
Q 51.46875 25.25 51.421875 23.6875 
L 12.75 23.6875 
Q 13.234375 15.140625 17.578125 10.59375 
Q 21.921875 6.0625 28.421875 6.0625 
Q 33.25 6.0625 36.671875 8.59375 
Q 40.09375 11.140625 42.09375 16.703125 
z
M 13.234375 30.90625 
L 42.1875 30.90625 
Q 41.609375 37.453125 38.875 40.71875 
Q 34.671875 45.796875 27.984375 45.796875 
Q 21.921875 45.796875 17.796875 41.75 
Q 13.671875 37.703125 13.234375 30.90625 
z
" id="ArialMT-101"/>
       <path d="M 6.5 0 
L 6.5 51.859375 
L 14.40625 51.859375 
L 14.40625 44 
Q 17.4375 49.515625 20 51.265625 
Q 22.5625 53.03125 25.640625 53.03125 
Q 30.078125 53.03125 34.671875 50.203125 
L 31.640625 42.046875 
Q 28.421875 43.953125 25.203125 43.953125 
Q 22.3125 43.953125 20.015625 42.21875 
Q 17.71875 40.484375 16.75 37.40625 
Q 15.28125 32.71875 15.28125 27.15625 
L 15.28125 0 
z
" id="ArialMT-114"/>
       <path id="ArialMT-32"/>
       <path d="M 3.328125 25.921875 
Q 3.328125 40.328125 11.328125 47.265625 
Q 18.015625 53.03125 27.640625 53.03125 
Q 38.328125 53.03125 45.109375 46.015625 
Q 51.90625 39.015625 51.90625 26.65625 
Q 51.90625 16.65625 48.90625 10.90625 
Q 45.90625 5.171875 40.15625 2 
Q 34.421875 -1.171875 27.640625 -1.171875 
Q 16.75 -1.171875 10.03125 5.8125 
Q 3.328125 12.796875 3.328125 25.921875 
z
M 12.359375 25.921875 
Q 12.359375 15.96875 16.703125 11.015625 
Q 21.046875 6.0625 27.640625 6.0625 
Q 34.1875 6.0625 38.53125 11.03125 
Q 42.875 16.015625 42.875 26.21875 
Q 42.875 35.84375 38.5 40.796875 
Q 34.125 45.75 27.640625 45.75 
Q 21.046875 45.75 16.703125 40.8125 
Q 12.359375 35.890625 12.359375 25.921875 
z
" id="ArialMT-111"/>
       <path d="M 8.6875 0 
L 8.6875 45.015625 
L 0.921875 45.015625 
L 0.921875 51.859375 
L 8.6875 51.859375 
L 8.6875 57.375 
Q 8.6875 62.59375 9.625 65.140625 
Q 10.890625 68.5625 14.078125 70.671875 
Q 17.28125 72.796875 23.046875 72.796875 
Q 26.765625 72.796875 31.25 71.921875 
L 29.9375 64.265625 
Q 27.203125 64.75 24.75 64.75 
Q 20.75 64.75 19.09375 63.03125 
Q 17.4375 61.328125 17.4375 56.640625 
L 17.4375 51.859375 
L 27.546875 51.859375 
L 27.546875 45.015625 
L 17.4375 45.015625 
L 17.4375 0 
z
" id="ArialMT-102"/>
       <path d="M 8.203125 0 
L 8.203125 71.578125 
L 56.5 71.578125 
L 56.5 63.140625 
L 17.671875 63.140625 
L 17.671875 40.96875 
L 51.265625 40.96875 
L 51.265625 32.515625 
L 17.671875 32.515625 
L 17.671875 0 
z
" id="ArialMT-70"/>
       <path d="M 40.4375 6.390625 
Q 35.546875 2.25 31.03125 0.53125 
Q 26.515625 -1.171875 21.34375 -1.171875 
Q 12.796875 -1.171875 8.203125 3 
Q 3.609375 7.171875 3.609375 13.671875 
Q 3.609375 17.484375 5.34375 20.625 
Q 7.078125 23.78125 9.890625 25.6875 
Q 12.703125 27.59375 16.21875 28.5625 
Q 18.796875 29.25 24.03125 29.890625 
Q 34.671875 31.15625 39.703125 32.90625 
Q 39.75 34.71875 39.75 35.203125 
Q 39.75 40.578125 37.25 42.78125 
Q 33.890625 45.75 27.25 45.75 
Q 21.046875 45.75 18.09375 43.578125 
Q 15.140625 41.40625 13.71875 35.890625 
L 5.125 37.0625 
Q 6.296875 42.578125 8.984375 45.96875 
Q 11.671875 49.359375 16.75 51.1875 
Q 21.828125 53.03125 28.515625 53.03125 
Q 35.15625 53.03125 39.296875 51.46875 
Q 43.453125 49.90625 45.40625 47.53125 
Q 47.359375 45.171875 48.140625 41.546875 
Q 48.578125 39.3125 48.578125 33.453125 
L 48.578125 21.734375 
Q 48.578125 9.46875 49.140625 6.21875 
Q 49.703125 2.984375 51.375 0 
L 42.1875 0 
Q 40.828125 2.734375 40.4375 6.390625 
z
M 39.703125 26.03125 
Q 34.90625 24.078125 25.34375 22.703125 
Q 19.921875 21.921875 17.671875 20.9375 
Q 15.4375 19.96875 14.203125 18.09375 
Q 12.984375 16.21875 12.984375 13.921875 
Q 12.984375 10.40625 15.640625 8.0625 
Q 18.3125 5.71875 23.4375 5.71875 
Q 28.515625 5.71875 32.46875 7.9375 
Q 36.421875 10.15625 38.28125 14.015625 
Q 39.703125 17 39.703125 22.796875 
z
" id="ArialMT-97"/>
       <path d="M 3.078125 15.484375 
L 11.765625 16.84375 
Q 12.5 11.625 15.84375 8.84375 
Q 19.1875 6.0625 25.203125 6.0625 
Q 31.25 6.0625 34.171875 8.515625 
Q 37.109375 10.984375 37.109375 14.3125 
Q 37.109375 17.28125 34.515625 19 
Q 32.71875 20.171875 25.53125 21.96875 
Q 15.875 24.421875 12.140625 26.203125 
Q 8.40625 27.984375 6.46875 31.125 
Q 4.546875 34.28125 4.546875 38.09375 
Q 4.546875 41.546875 6.125 44.5 
Q 7.71875 47.46875 10.453125 49.421875 
Q 12.5 50.921875 16.03125 51.96875 
Q 19.578125 53.03125 23.640625 53.03125 
Q 29.734375 53.03125 34.34375 51.265625 
Q 38.96875 49.515625 41.15625 46.5 
Q 43.359375 43.5 44.1875 38.484375 
L 35.59375 37.3125 
Q 35.015625 41.3125 32.203125 43.546875 
Q 29.390625 45.796875 24.265625 45.796875 
Q 18.21875 45.796875 15.625 43.796875 
Q 13.03125 41.796875 13.03125 39.109375 
Q 13.03125 37.40625 14.109375 36.03125 
Q 15.1875 34.625 17.484375 33.6875 
Q 18.796875 33.203125 25.25 31.453125 
Q 34.578125 28.953125 38.25 27.359375 
Q 41.9375 25.78125 44.03125 22.75 
Q 46.140625 19.734375 46.140625 15.234375 
Q 46.140625 10.84375 43.578125 6.953125 
Q 41.015625 3.078125 36.171875 0.953125 
Q 31.34375 -1.171875 25.25 -1.171875 
Q 15.140625 -1.171875 9.84375 3.03125 
Q 4.546875 7.234375 3.078125 15.484375 
z
" id="ArialMT-115"/>
       <path d="M 23.390625 -21.046875 
Q 16.109375 -11.859375 11.078125 0.4375 
Q 6.0625 12.75 6.0625 25.921875 
Q 6.0625 37.546875 9.8125 48.1875 
Q 14.203125 60.546875 23.390625 72.796875 
L 29.6875 72.796875 
Q 23.78125 62.640625 21.875 58.296875 
Q 18.890625 51.5625 17.1875 44.234375 
Q 15.09375 35.109375 15.09375 25.875 
Q 15.09375 2.390625 29.6875 -21.046875 
z
" id="ArialMT-40"/>
       <path d="M 6.640625 61.46875 
L 6.640625 71.578125 
L 15.4375 71.578125 
L 15.4375 61.46875 
z
M 6.640625 0 
L 6.640625 51.859375 
L 15.4375 51.859375 
L 15.4375 0 
z
" id="ArialMT-105"/>
       <path d="M 6.59375 0 
L 6.59375 51.859375 
L 14.5 51.859375 
L 14.5 44.484375 
Q 20.21875 53.03125 31 53.03125 
Q 35.6875 53.03125 39.625 51.34375 
Q 43.5625 49.65625 45.515625 46.921875 
Q 47.46875 44.1875 48.25 40.4375 
Q 48.734375 37.984375 48.734375 31.890625 
L 48.734375 0 
L 39.9375 0 
L 39.9375 31.546875 
Q 39.9375 36.921875 38.90625 39.578125 
Q 37.890625 42.234375 35.28125 43.8125 
Q 32.671875 45.40625 29.15625 45.40625 
Q 23.53125 45.40625 19.453125 41.84375 
Q 15.375 38.28125 15.375 28.328125 
L 15.375 0 
z
" id="ArialMT-110"/>
       <path d="M 6.390625 0 
L 6.390625 71.578125 
L 15.1875 71.578125 
L 15.1875 0 
z
" id="ArialMT-108"/>
       <path d="M 12.359375 -21.046875 
L 6.0625 -21.046875 
Q 20.65625 2.390625 20.65625 25.875 
Q 20.65625 35.0625 18.5625 44.09375 
Q 16.890625 51.421875 13.921875 58.15625 
Q 12.015625 62.546875 6.0625 72.796875 
L 12.359375 72.796875 
Q 21.53125 60.546875 25.921875 48.1875 
Q 29.6875 37.546875 29.6875 25.921875 
Q 29.6875 12.75 24.625 0.4375 
Q 19.578125 -11.859375 12.359375 -21.046875 
z
" id="ArialMT-41"/>
      </defs>
      <use xlink:href="#ArialMT-78"/>
      <use x="72.216797" xlink:href="#ArialMT-117"/>
      <use x="127.832031" xlink:href="#ArialMT-109"/>
      <use x="211.132812" xlink:href="#ArialMT-98"/>
      <use x="266.748047" xlink:href="#ArialMT-101"/>
      <use x="322.363281" xlink:href="#ArialMT-114"/>
      <use x="355.664062" xlink:href="#ArialMT-32"/>
      <use x="383.447266" xlink:href="#ArialMT-111"/>
      <use x="439.0625" xlink:href="#ArialMT-102"/>
      <use x="466.845703" xlink:href="#ArialMT-32"/>
      <use x="494.628906" xlink:href="#ArialMT-70"/>
      <use x="555.712891" xlink:href="#ArialMT-114"/>
      <use x="589.013672" xlink:href="#ArialMT-97"/>
      <use x="644.628906" xlink:href="#ArialMT-109"/>
      <use x="727.929688" xlink:href="#ArialMT-101"/>
      <use x="783.544922" xlink:href="#ArialMT-115"/>
      <use x="833.544922" xlink:href="#ArialMT-32"/>
      <use x="861.328125" xlink:href="#ArialMT-40"/>
      <use x="894.628906" xlink:href="#ArialMT-105"/>
      <use x="916.845703" xlink:href="#ArialMT-110"/>
      <use x="972.460938" xlink:href="#ArialMT-32"/>
      <use x="1000.244141" xlink:href="#ArialMT-109"/>
      <use x="1083.544922" xlink:href="#ArialMT-105"/>
      <use x="1105.761719" xlink:href="#ArialMT-108"/>
      <use x="1127.978516" xlink:href="#ArialMT-108"/>
      <use x="1150.195312" xlink:href="#ArialMT-105"/>
      <use x="1172.412109" xlink:href="#ArialMT-111"/>
      <use x="1228.027344" xlink:href="#ArialMT-110"/>
      <use x="1283.642578" xlink:href="#ArialMT-115"/>
      <use x="1333.642578" xlink:href="#ArialMT-41"/>
     </g>
    </g>
   </g>
   <g id="matplotlib.axis_2">
    <g id="ytick_1">
     <g id="line2d_10">
      <path clip-path="url(#p54438b5423)" d="M 53.98475 302.305361 
L 485.166568 302.305361 
" style="fill:none;stroke:#cccccc;stroke-linecap:round;stroke-opacity:0.2;stroke-width:0.8;"/>
     </g>
     <g id="text_11">
      <!-- 0 -->
      <g style="fill:#262626;" transform="translate(32.377 307.458986)scale(0.144 -0.144)">
       <use xlink:href="#ArialMT-48"/>
      </g>
     </g>
    </g>
    <g id="ytick_2">
     <g id="line2d_11">
      <path clip-path="url(#p54438b5423)" d="M 53.98475 261.341107 
L 485.166568 261.341107 
" style="fill:none;stroke:#cccccc;stroke-linecap:round;stroke-opacity:0.2;stroke-width:0.8;"/>
     </g>
     <g id="text_12">
      <!-- 2 -->
      <g style="fill:#262626;" transform="translate(32.377 266.494732)scale(0.144 -0.144)">
       <use xlink:href="#ArialMT-50"/>
      </g>
     </g>
    </g>
    <g id="ytick_3">
     <g id="line2d_12">
      <path clip-path="url(#p54438b5423)" d="M 53.98475 220.376854 
L 485.166568 220.376854 
" style="fill:none;stroke:#cccccc;stroke-linecap:round;stroke-opacity:0.2;stroke-width:0.8;"/>
     </g>
     <g id="text_13">
      <!-- 4 -->
      <g style="fill:#262626;" transform="translate(32.377 225.530479)scale(0.144 -0.144)">
       <defs>
        <path d="M 32.328125 0 
L 32.328125 17.140625 
L 1.265625 17.140625 
L 1.265625 25.203125 
L 33.9375 71.578125 
L 41.109375 71.578125 
L 41.109375 25.203125 
L 50.78125 25.203125 
L 50.78125 17.140625 
L 41.109375 17.140625 
L 41.109375 0 
z
M 32.328125 25.203125 
L 32.328125 57.46875 
L 9.90625 25.203125 
z
" id="ArialMT-52"/>
       </defs>
       <use xlink:href="#ArialMT-52"/>
      </g>
     </g>
    </g>
    <g id="ytick_4">
     <g id="line2d_13">
      <path clip-path="url(#p54438b5423)" d="M 53.98475 179.412601 
L 485.166568 179.412601 
" style="fill:none;stroke:#cccccc;stroke-linecap:round;stroke-opacity:0.2;stroke-width:0.8;"/>
     </g>
     <g id="text_14">
      <!-- 6 -->
      <g style="fill:#262626;" transform="translate(32.377 184.566226)scale(0.144 -0.144)">
       <defs>
        <path d="M 49.75 54.046875 
L 41.015625 53.375 
Q 39.84375 58.546875 37.703125 60.890625 
Q 34.125 64.65625 28.90625 64.65625 
Q 24.703125 64.65625 21.53125 62.3125 
Q 17.390625 59.28125 14.984375 53.46875 
Q 12.59375 47.65625 12.5 36.921875 
Q 15.671875 41.75 20.265625 44.09375 
Q 24.859375 46.4375 29.890625 46.4375 
Q 38.671875 46.4375 44.84375 39.96875 
Q 51.03125 33.5 51.03125 23.25 
Q 51.03125 16.5 48.125 10.71875 
Q 45.21875 4.9375 40.140625 1.859375 
Q 35.0625 -1.21875 28.609375 -1.21875 
Q 17.625 -1.21875 10.6875 6.859375 
Q 3.765625 14.9375 3.765625 33.5 
Q 3.765625 54.25 11.421875 63.671875 
Q 18.109375 71.875 29.4375 71.875 
Q 37.890625 71.875 43.28125 67.140625 
Q 48.6875 62.40625 49.75 54.046875 
z
M 13.875 23.1875 
Q 13.875 18.65625 15.796875 14.5 
Q 17.71875 10.359375 21.1875 8.171875 
Q 24.65625 6 28.46875 6 
Q 34.03125 6 38.03125 10.484375 
Q 42.046875 14.984375 42.046875 22.703125 
Q 42.046875 30.125 38.078125 34.390625 
Q 34.125 38.671875 28.125 38.671875 
Q 22.171875 38.671875 18.015625 34.390625 
Q 13.875 30.125 13.875 23.1875 
z
" id="ArialMT-54"/>
       </defs>
       <use xlink:href="#ArialMT-54"/>
      </g>
     </g>
    </g>
    <g id="ytick_5">
     <g id="line2d_14">
      <path clip-path="url(#p54438b5423)" d="M 53.98475 138.448347 
L 485.166568 138.448347 
" style="fill:none;stroke:#cccccc;stroke-linecap:round;stroke-opacity:0.2;stroke-width:0.8;"/>
     </g>
     <g id="text_15">
      <!-- 8 -->
      <g style="fill:#262626;" transform="translate(32.377 143.601972)scale(0.144 -0.144)">
       <defs>
        <path d="M 17.671875 38.8125 
Q 12.203125 40.828125 9.5625 44.53125 
Q 6.9375 48.25 6.9375 53.421875 
Q 6.9375 61.234375 12.546875 66.546875 
Q 18.171875 71.875 27.484375 71.875 
Q 36.859375 71.875 42.578125 66.421875 
Q 48.296875 60.984375 48.296875 53.171875 
Q 48.296875 48.1875 45.671875 44.5 
Q 43.0625 40.828125 37.75 38.8125 
Q 44.34375 36.671875 47.78125 31.875 
Q 51.21875 27.09375 51.21875 20.453125 
Q 51.21875 11.28125 44.71875 5.03125 
Q 38.234375 -1.21875 27.640625 -1.21875 
Q 17.046875 -1.21875 10.546875 5.046875 
Q 4.046875 11.328125 4.046875 20.703125 
Q 4.046875 27.6875 7.59375 32.390625 
Q 11.140625 37.109375 17.671875 38.8125 
z
M 15.921875 53.71875 
Q 15.921875 48.640625 19.1875 45.40625 
Q 22.46875 42.1875 27.6875 42.1875 
Q 32.765625 42.1875 36.015625 45.375 
Q 39.265625 48.578125 39.265625 53.21875 
Q 39.265625 58.0625 35.90625 61.359375 
Q 32.5625 64.65625 27.59375 64.65625 
Q 22.5625 64.65625 19.234375 61.421875 
Q 15.921875 58.203125 15.921875 53.71875 
z
M 13.09375 20.65625 
Q 13.09375 16.890625 14.875 13.375 
Q 16.65625 9.859375 20.171875 7.921875 
Q 23.6875 6 27.734375 6 
Q 34.03125 6 38.125 10.046875 
Q 42.234375 14.109375 42.234375 20.359375 
Q 42.234375 26.703125 38.015625 30.859375 
Q 33.796875 35.015625 27.4375 35.015625 
Q 21.234375 35.015625 17.15625 30.90625 
Q 13.09375 26.8125 13.09375 20.65625 
z
" id="ArialMT-56"/>
       </defs>
       <use xlink:href="#ArialMT-56"/>
      </g>
     </g>
    </g>
    <g id="ytick_6">
     <g id="line2d_15">
      <path clip-path="url(#p54438b5423)" d="M 53.98475 97.484094 
L 485.166568 97.484094 
" style="fill:none;stroke:#cccccc;stroke-linecap:round;stroke-opacity:0.2;stroke-width:0.8;"/>
     </g>
     <g id="text_16">
      <!-- 10 -->
      <g style="fill:#262626;" transform="translate(24.36925 102.637719)scale(0.144 -0.144)">
       <use xlink:href="#ArialMT-49"/>
       <use x="55.615234" xlink:href="#ArialMT-48"/>
      </g>
     </g>
    </g>
    <g id="text_17">
     <!-- Mean -->
     <g style="fill:#262626;" transform="translate(17.50725 211.599)rotate(-90)scale(0.144 -0.144)">
      <defs>
       <path d="M 7.421875 0 
L 7.421875 71.578125 
L 21.6875 71.578125 
L 38.625 20.90625 
Q 40.96875 13.8125 42.046875 10.296875 
Q 43.265625 14.203125 45.84375 21.78125 
L 62.984375 71.578125 
L 75.734375 71.578125 
L 75.734375 0 
L 66.609375 0 
L 66.609375 59.90625 
L 45.796875 0 
L 37.25 0 
L 16.546875 60.9375 
L 16.546875 0 
z
" id="ArialMT-77"/>
      </defs>
      <use xlink:href="#ArialMT-77"/>
      <use x="83.300781" xlink:href="#ArialMT-101"/>
      <use x="138.916016" xlink:href="#ArialMT-97"/>
      <use x="194.53125" xlink:href="#ArialMT-110"/>
     </g>
    </g>
   </g>
   <g id="PolyCollection_1">
    <defs>
     <path d="M 73.583924 -63.415619 
L 73.583924 -62.985356 
L 91.401354 -69.656341 
L 121.097072 -81.742599 
L 170.589934 -111.190188 
L 220.082797 -125.675784 
L 269.575659 -111.750614 
L 319.068522 -125.794881 
L 368.561384 -125.107697 
L 418.054247 -122.678773 
L 465.567395 -120.297764 
L 465.567395 -126.685635 
L 465.567395 -126.685635 
L 418.054247 -128.897692 
L 368.561384 -140.225597 
L 319.068522 -138.681219 
L 269.575659 -132.960182 
L 220.082797 -145.776013 
L 170.589934 -128.893267 
L 121.097072 -83.391601 
L 91.401354 -70.582557 
L 73.583924 -63.415619 
z
" id="m9acc5b8c25" style="stroke:#949494;stroke-opacity:0.2;"/>
    </defs>
    <g clip-path="url(#p54438b5423)">
     <use style="fill:#949494;fill-opacity:0.2;stroke:#949494;stroke-opacity:0.2;" x="0" xlink:href="#m9acc5b8c25" y="367.38275"/>
    </g>
   </g>
   <g id="PolyCollection_2">
    <defs>
     <path d="M 73.583924 -62.831613 
L 73.583924 -62.601841 
L 91.401354 -77.557726 
L 121.097072 -134.32994 
L 170.589934 -177.411065 
L 220.082797 -173.067411 
L 269.575659 -191.831099 
L 319.068522 -190.478223 
L 368.561384 -186.915826 
L 418.054247 -204.745694 
L 465.567395 -210.105511 
L 465.567395 -240.224203 
L 465.567395 -240.224203 
L 418.054247 -240.862929 
L 368.561384 -220.170272 
L 319.068522 -220.578506 
L 269.575659 -217.691817 
L 220.082797 -199.682911 
L 170.589934 -202.496219 
L 121.097072 -162.282661 
L 91.401354 -80.371582 
L 73.583924 -62.831613 
z
" id="m9469f95b2e" style="stroke:#0173b2;stroke-opacity:0.2;"/>
    </defs>
    <g clip-path="url(#p54438b5423)">
     <use style="fill:#0173b2;fill-opacity:0.2;stroke:#0173b2;stroke-opacity:0.2;" x="0" xlink:href="#m9469f95b2e" y="367.38275"/>
    </g>
   </g>
   <g id="PolyCollection_3">
    <defs>
     <path d="M 73.583924 -64.924356 
L 73.583924 -64.563195 
L 91.401354 -106.839279 
L 121.097072 -149.617977 
L 170.589934 -223.267541 
L 220.082797 -222.161932 
L 269.575659 -214.824794 
L 319.068522 -196.35393 
L 368.561384 -194.850955 
L 418.054247 -213.542355 
L 465.567395 -225.27909 
L 465.567395 -278.020912 
L 465.567395 -278.020912 
L 418.054247 -264.607988 
L 368.561384 -277.757007 
L 319.068522 -260.32004 
L 269.575659 -229.252439 
L 220.082797 -247.907045 
L 170.589934 -246.899094 
L 121.097072 -154.289194 
L 91.401354 -110.055523 
L 73.583924 -64.924356 
z
" id="m777209eb39" style="stroke:#029e73;stroke-opacity:0.2;"/>
    </defs>
    <g clip-path="url(#p54438b5423)">
     <use style="fill:#029e73;fill-opacity:0.2;stroke:#029e73;stroke-opacity:0.2;" x="0" xlink:href="#m777209eb39" y="367.38275"/>
    </g>
   </g>
   <g id="PolyCollection_4">
    <defs>
     <path d="M 73.583924 -63.022152 
L 73.583924 -62.84805 
L 91.401354 -86.021125 
L 121.097072 -128.899712 
L 170.589934 -236.845722 
L 220.082797 -223.615929 
L 269.575659 -208.747432 
L 319.068522 -231.053927 
L 368.561384 -225.921698 
L 418.054247 -226.285559 
L 465.567395 -231.05529 
L 465.567395 -272.535869 
L 465.567395 -272.535869 
L 418.054247 -254.144779 
L 368.561384 -259.657733 
L 319.068522 -260.586657 
L 269.575659 -247.945476 
L 220.082797 -252.881401 
L 170.589934 -261.195382 
L 121.097072 -135.598545 
L 91.401354 -88.440157 
L 73.583924 -63.022152 
z
" id="mfba1ba2437" style="stroke:#d55e00;stroke-opacity:0.2;"/>
    </defs>
    <g clip-path="url(#p54438b5423)">
     <use style="fill:#d55e00;fill-opacity:0.2;stroke:#d55e00;stroke-opacity:0.2;" x="0" xlink:href="#mfba1ba2437" y="367.38275"/>
    </g>
   </g>
   <g id="PolyCollection_5">
    <defs>
     <path d="M 73.583924 -63.454548 
L 73.583924 -62.85336 
L 91.401354 -75.691262 
L 121.097072 -112.749964 
L 170.589934 -164.433185 
L 220.082797 -178.848949 
L 269.575659 -192.308909 
L 319.068522 -207.186136 
L 368.561384 -220.437915 
L 418.054247 -234.630538 
L 465.567395 -229.847161 
L 465.567395 -284.983659 
L 465.567395 -284.983659 
L 418.054247 -252.208132 
L 368.561384 -239.091013 
L 319.068522 -226.013772 
L 269.575659 -201.995239 
L 220.082797 -188.729275 
L 170.589934 -182.441856 
L 121.097072 -139.991125 
L 91.401354 -78.10096 
L 73.583924 -63.454548 
z
" id="mbc514300ab" style="stroke:#cc78bc;stroke-opacity:0.2;"/>
    </defs>
    <g clip-path="url(#p54438b5423)">
     <use style="fill:#cc78bc;fill-opacity:0.2;stroke:#cc78bc;stroke-opacity:0.2;" x="0" xlink:href="#mbc514300ab" y="367.38275"/>
    </g>
   </g>
   <g id="line2d_16">
    <path clip-path="url(#p54438b5423)" d="M 73.583924 304.178522 
L 91.401354 297.260743 
L 121.097072 284.768353 
L 170.589934 247.549036 
L 220.082797 231.806312 
L 269.575659 244.58575 
L 319.068522 235.140786 
L 368.561384 235.093629 
L 418.054247 241.309901 
L 465.567395 244.000774 
" style="fill:none;stroke:#949494;stroke-linecap:round;stroke-width:2;"/>
    <defs>
     <path d="M 0 3 
C 0.795609 3 1.55874 2.683901 2.12132 2.12132 
C 2.683901 1.55874 3 0.795609 3 0 
C 3 -0.795609 2.683901 -1.55874 2.12132 -2.12132 
C 1.55874 -2.683901 0.795609 -3 0 -3 
C -0.795609 -3 -1.55874 -2.683901 -2.12132 -2.12132 
C -2.683901 -1.55874 -3 -0.795609 -3 0 
C -3 0.795609 -2.683901 1.55874 -2.12132 2.12132 
C -1.55874 2.683901 -0.795609 3 0 3 
z
" id="m8c7900b6bd" style="stroke:#949494;"/>
    </defs>
    <g clip-path="url(#p54438b5423)">
     <use style="fill:#949494;stroke:#949494;" x="73.583924" xlink:href="#m8c7900b6bd" y="304.178522"/>
     <use style="fill:#949494;stroke:#949494;" x="91.401354" xlink:href="#m8c7900b6bd" y="297.260743"/>
     <use style="fill:#949494;stroke:#949494;" x="121.097072" xlink:href="#m8c7900b6bd" y="284.768353"/>
     <use style="fill:#949494;stroke:#949494;" x="170.589934" xlink:href="#m8c7900b6bd" y="247.549036"/>
     <use style="fill:#949494;stroke:#949494;" x="220.082797" xlink:href="#m8c7900b6bd" y="231.806312"/>
     <use style="fill:#949494;stroke:#949494;" x="269.575659" xlink:href="#m8c7900b6bd" y="244.58575"/>
     <use style="fill:#949494;stroke:#949494;" x="319.068522" xlink:href="#m8c7900b6bd" y="235.140786"/>
     <use style="fill:#949494;stroke:#949494;" x="368.561384" xlink:href="#m8c7900b6bd" y="235.093629"/>
     <use style="fill:#949494;stroke:#949494;" x="418.054247" xlink:href="#m8c7900b6bd" y="241.309901"/>
     <use style="fill:#949494;stroke:#949494;" x="465.567395" xlink:href="#m8c7900b6bd" y="244.000774"/>
    </g>
   </g>
   <g id="line2d_17">
    <path clip-path="url(#p54438b5423)" d="M 73.583924 304.668941 
L 91.401354 288.347412 
L 121.097072 219.579358 
L 170.589934 176.752733 
L 220.082797 180.972045 
L 269.575659 162.475373 
L 319.068522 162.028244 
L 368.561384 164.097728 
L 418.054247 144.967493 
L 465.567395 144.534031 
" style="fill:none;stroke:#0173b2;stroke-linecap:round;stroke-width:2;"/>
    <defs>
     <path d="M 0 3 
C 0.795609 3 1.55874 2.683901 2.12132 2.12132 
C 2.683901 1.55874 3 0.795609 3 0 
C 3 -0.795609 2.683901 -1.55874 2.12132 -2.12132 
C 1.55874 -2.683901 0.795609 -3 0 -3 
C -0.795609 -3 -1.55874 -2.683901 -2.12132 -2.12132 
C -2.683901 -1.55874 -3 -0.795609 -3 0 
C -3 0.795609 -2.683901 1.55874 -2.12132 2.12132 
C -1.55874 2.683901 -0.795609 3 0 3 
z
" id="me997902346" style="stroke:#0173b2;"/>
    </defs>
    <g clip-path="url(#p54438b5423)">
     <use style="fill:#0173b2;stroke:#0173b2;" x="73.583924" xlink:href="#me997902346" y="304.668941"/>
     <use style="fill:#0173b2;stroke:#0173b2;" x="91.401354" xlink:href="#me997902346" y="288.347412"/>
     <use style="fill:#0173b2;stroke:#0173b2;" x="121.097072" xlink:href="#me997902346" y="219.579358"/>
     <use style="fill:#0173b2;stroke:#0173b2;" x="170.589934" xlink:href="#me997902346" y="176.752733"/>
     <use style="fill:#0173b2;stroke:#0173b2;" x="220.082797" xlink:href="#me997902346" y="180.972045"/>
     <use style="fill:#0173b2;stroke:#0173b2;" x="269.575659" xlink:href="#me997902346" y="162.475373"/>
     <use style="fill:#0173b2;stroke:#0173b2;" x="319.068522" xlink:href="#me997902346" y="162.028244"/>
     <use style="fill:#0173b2;stroke:#0173b2;" x="368.561384" xlink:href="#me997902346" y="164.097728"/>
     <use style="fill:#0173b2;stroke:#0173b2;" x="418.054247" xlink:href="#me997902346" y="144.967493"/>
     <use style="fill:#0173b2;stroke:#0173b2;" x="465.567395" xlink:href="#me997902346" y="144.534031"/>
    </g>
   </g>
   <g id="line2d_18">
    <path clip-path="url(#p54438b5423)" d="M 73.583924 302.64247 
L 91.401354 258.952951 
L 121.097072 215.17054 
L 170.589934 134.245807 
L 220.082797 132.512914 
L 269.575659 145.380901 
L 319.068522 136.251857 
L 368.561384 132.375311 
L 418.054247 129.53917 
L 465.567395 120.627366 
" style="fill:none;stroke:#029e73;stroke-linecap:round;stroke-width:2;"/>
    <defs>
     <path d="M 0 3 
C 0.795609 3 1.55874 2.683901 2.12132 2.12132 
C 2.683901 1.55874 3 0.795609 3 0 
C 3 -0.795609 2.683901 -1.55874 2.12132 -2.12132 
C 1.55874 -2.683901 0.795609 -3 0 -3 
C -0.795609 -3 -1.55874 -2.683901 -2.12132 -2.12132 
C -2.683901 -1.55874 -3 -0.795609 -3 0 
C -3 0.795609 -2.683901 1.55874 -2.12132 2.12132 
C -1.55874 2.683901 -0.795609 3 0 3 
z
" id="m0186bd0744" style="stroke:#029e73;"/>
    </defs>
    <g clip-path="url(#p54438b5423)">
     <use style="fill:#029e73;stroke:#029e73;" x="73.583924" xlink:href="#m0186bd0744" y="302.64247"/>
     <use style="fill:#029e73;stroke:#029e73;" x="91.401354" xlink:href="#m0186bd0744" y="258.952951"/>
     <use style="fill:#029e73;stroke:#029e73;" x="121.097072" xlink:href="#m0186bd0744" y="215.17054"/>
     <use style="fill:#029e73;stroke:#029e73;" x="170.589934" xlink:href="#m0186bd0744" y="134.245807"/>
     <use style="fill:#029e73;stroke:#029e73;" x="220.082797" xlink:href="#m0186bd0744" y="132.512914"/>
     <use style="fill:#029e73;stroke:#029e73;" x="269.575659" xlink:href="#m0186bd0744" y="145.380901"/>
     <use style="fill:#029e73;stroke:#029e73;" x="319.068522" xlink:href="#m0186bd0744" y="136.251857"/>
     <use style="fill:#029e73;stroke:#029e73;" x="368.561384" xlink:href="#m0186bd0744" y="132.375311"/>
     <use style="fill:#029e73;stroke:#029e73;" x="418.054247" xlink:href="#m0186bd0744" y="129.53917"/>
     <use style="fill:#029e73;stroke:#029e73;" x="465.567395" xlink:href="#m0186bd0744" y="120.627366"/>
    </g>
   </g>
   <g id="line2d_19">
    <path clip-path="url(#p54438b5423)" d="M 73.583924 304.443366 
L 91.401354 280.20875 
L 121.097072 235.160545 
L 170.589934 120.483775 
L 220.082797 128.915066 
L 269.575659 141.851663 
L 319.068522 121.488287 
L 368.561384 124.732133 
L 418.054247 127.497334 
L 465.567395 115.477575 
" style="fill:none;stroke:#d55e00;stroke-linecap:round;stroke-width:2;"/>
    <defs>
     <path d="M 0 3 
C 0.795609 3 1.55874 2.683901 2.12132 2.12132 
C 2.683901 1.55874 3 0.795609 3 0 
C 3 -0.795609 2.683901 -1.55874 2.12132 -2.12132 
C 1.55874 -2.683901 0.795609 -3 0 -3 
C -0.795609 -3 -1.55874 -2.683901 -2.12132 -2.12132 
C -2.683901 -1.55874 -3 -0.795609 -3 0 
C -3 0.795609 -2.683901 1.55874 -2.12132 2.12132 
C -1.55874 2.683901 -0.795609 3 0 3 
z
" id="mc4f9f96581" style="stroke:#d55e00;"/>
    </defs>
    <g clip-path="url(#p54438b5423)">
     <use style="fill:#d55e00;stroke:#d55e00;" x="73.583924" xlink:href="#mc4f9f96581" y="304.443366"/>
     <use style="fill:#d55e00;stroke:#d55e00;" x="91.401354" xlink:href="#mc4f9f96581" y="280.20875"/>
     <use style="fill:#d55e00;stroke:#d55e00;" x="121.097072" xlink:href="#mc4f9f96581" y="235.160545"/>
     <use style="fill:#d55e00;stroke:#d55e00;" x="170.589934" xlink:href="#mc4f9f96581" y="120.483775"/>
     <use style="fill:#d55e00;stroke:#d55e00;" x="220.082797" xlink:href="#mc4f9f96581" y="128.915066"/>
     <use style="fill:#d55e00;stroke:#d55e00;" x="269.575659" xlink:href="#mc4f9f96581" y="141.851663"/>
     <use style="fill:#d55e00;stroke:#d55e00;" x="319.068522" xlink:href="#mc4f9f96581" y="121.488287"/>
     <use style="fill:#d55e00;stroke:#d55e00;" x="368.561384" xlink:href="#mc4f9f96581" y="124.732133"/>
     <use style="fill:#d55e00;stroke:#d55e00;" x="418.054247" xlink:href="#mc4f9f96581" y="127.497334"/>
     <use style="fill:#d55e00;stroke:#d55e00;" x="465.567395" xlink:href="#mc4f9f96581" y="115.477575"/>
    </g>
   </g>
   <g id="line2d_20">
    <path clip-path="url(#p54438b5423)" d="M 73.583924 304.281484 
L 91.401354 290.586308 
L 121.097072 244.574453 
L 170.589934 193.150859 
L 220.082797 183.707605 
L 269.575659 170.074135 
L 319.068522 151.221124 
L 368.561384 137.339719 
L 418.054247 123.846254 
L 465.567395 114.025069 
" style="fill:none;stroke:#cc78bc;stroke-linecap:round;stroke-width:2;"/>
    <defs>
     <path d="M 0 3 
C 0.795609 3 1.55874 2.683901 2.12132 2.12132 
C 2.683901 1.55874 3 0.795609 3 0 
C 3 -0.795609 2.683901 -1.55874 2.12132 -2.12132 
C 1.55874 -2.683901 0.795609 -3 0 -3 
C -0.795609 -3 -1.55874 -2.683901 -2.12132 -2.12132 
C -2.683901 -1.55874 -3 -0.795609 -3 0 
C -3 0.795609 -2.683901 1.55874 -2.12132 2.12132 
C -1.55874 2.683901 -0.795609 3 0 3 
z
" id="m75f847a5d0" style="stroke:#cc78bc;"/>
    </defs>
    <g clip-path="url(#p54438b5423)">
     <use style="fill:#cc78bc;stroke:#cc78bc;" x="73.583924" xlink:href="#m75f847a5d0" y="304.281484"/>
     <use style="fill:#cc78bc;stroke:#cc78bc;" x="91.401354" xlink:href="#m75f847a5d0" y="290.586308"/>
     <use style="fill:#cc78bc;stroke:#cc78bc;" x="121.097072" xlink:href="#m75f847a5d0" y="244.574453"/>
     <use style="fill:#cc78bc;stroke:#cc78bc;" x="170.589934" xlink:href="#m75f847a5d0" y="193.150859"/>
     <use style="fill:#cc78bc;stroke:#cc78bc;" x="220.082797" xlink:href="#m75f847a5d0" y="183.707605"/>
     <use style="fill:#cc78bc;stroke:#cc78bc;" x="269.575659" xlink:href="#m75f847a5d0" y="170.074135"/>
     <use style="fill:#cc78bc;stroke:#cc78bc;" x="319.068522" xlink:href="#m75f847a5d0" y="151.221124"/>
     <use style="fill:#cc78bc;stroke:#cc78bc;" x="368.561384" xlink:href="#m75f847a5d0" y="137.339719"/>
     <use style="fill:#cc78bc;stroke:#cc78bc;" x="418.054247" xlink:href="#m75f847a5d0" y="123.846254"/>
     <use style="fill:#cc78bc;stroke:#cc78bc;" x="465.567395" xlink:href="#m75f847a5d0" y="114.025069"/>
    </g>
   </g>
   <g id="patch_3">
    <path d="M 43.98475 315.9 
L 43.98475 71.28 
" style="fill:none;stroke:#262626;stroke-linecap:square;stroke-linejoin:miter;stroke-width:2;"/>
   </g>
   <g id="patch_4">
    <path d="M 53.98475 325.9 
L 485.166568 325.9 
" style="fill:none;stroke:#262626;stroke-linecap:square;stroke-linejoin:miter;stroke-width:2;"/>
   </g>
  </g>
  <g id="axes_2">
   <g id="patch_5">
    <path d="M 571.402932 315.9 
L 1002.58475 315.9 
L 1002.58475 71.28 
L 571.402932 71.28 
z
" style="fill:#ffffff;"/>
   </g>
   <g id="matplotlib.axis_3">
    <g id="xtick_10">
     <g id="line2d_21">
      <path clip-path="url(#p2b577d0c24)" d="M 589.022391 315.9 
L 589.022391 71.28 
" style="fill:none;stroke:#cccccc;stroke-linecap:round;stroke-opacity:0.2;stroke-width:0.8;"/>
     </g>
     <g id="text_18">
      <!-- 0 -->
      <g style="fill:#262626;" transform="translate(585.018516 339.80725)scale(0.144 -0.144)">
       <use xlink:href="#ArialMT-48"/>
      </g>
     </g>
    </g>
    <g id="xtick_11">
     <g id="line2d_22">
      <path clip-path="url(#p2b577d0c24)" d="M 638.515253 315.9 
L 638.515253 71.28 
" style="fill:none;stroke:#cccccc;stroke-linecap:round;stroke-opacity:0.2;stroke-width:0.8;"/>
     </g>
     <g id="text_19">
      <!-- 25 -->
      <g style="fill:#262626;" transform="translate(630.507503 339.80725)scale(0.144 -0.144)">
       <use xlink:href="#ArialMT-50"/>
       <use x="55.615234" xlink:href="#ArialMT-53"/>
      </g>
     </g>
    </g>
    <g id="xtick_12">
     <g id="line2d_23">
      <path clip-path="url(#p2b577d0c24)" d="M 688.008116 315.9 
L 688.008116 71.28 
" style="fill:none;stroke:#cccccc;stroke-linecap:round;stroke-opacity:0.2;stroke-width:0.8;"/>
     </g>
     <g id="text_20">
      <!-- 50 -->
      <g style="fill:#262626;" transform="translate(680.000366 339.80725)scale(0.144 -0.144)">
       <use xlink:href="#ArialMT-53"/>
       <use x="55.615234" xlink:href="#ArialMT-48"/>
      </g>
     </g>
    </g>
    <g id="xtick_13">
     <g id="line2d_24">
      <path clip-path="url(#p2b577d0c24)" d="M 737.500978 315.9 
L 737.500978 71.28 
" style="fill:none;stroke:#cccccc;stroke-linecap:round;stroke-opacity:0.2;stroke-width:0.8;"/>
     </g>
     <g id="text_21">
      <!-- 75 -->
      <g style="fill:#262626;" transform="translate(729.493228 339.80725)scale(0.144 -0.144)">
       <use xlink:href="#ArialMT-55"/>
       <use x="55.615234" xlink:href="#ArialMT-53"/>
      </g>
     </g>
    </g>
    <g id="xtick_14">
     <g id="line2d_25">
      <path clip-path="url(#p2b577d0c24)" d="M 786.993841 315.9 
L 786.993841 71.28 
" style="fill:none;stroke:#cccccc;stroke-linecap:round;stroke-opacity:0.2;stroke-width:0.8;"/>
     </g>
     <g id="text_22">
      <!-- 100 -->
      <g style="fill:#262626;" transform="translate(774.982216 339.80725)scale(0.144 -0.144)">
       <use xlink:href="#ArialMT-49"/>
       <use x="55.615234" xlink:href="#ArialMT-48"/>
       <use x="111.230469" xlink:href="#ArialMT-48"/>
      </g>
     </g>
    </g>
    <g id="xtick_15">
     <g id="line2d_26">
      <path clip-path="url(#p2b577d0c24)" d="M 836.486703 315.9 
L 836.486703 71.28 
" style="fill:none;stroke:#cccccc;stroke-linecap:round;stroke-opacity:0.2;stroke-width:0.8;"/>
     </g>
     <g id="text_23">
      <!-- 125 -->
      <g style="fill:#262626;" transform="translate(824.475078 339.80725)scale(0.144 -0.144)">
       <use xlink:href="#ArialMT-49"/>
       <use x="55.615234" xlink:href="#ArialMT-50"/>
       <use x="111.230469" xlink:href="#ArialMT-53"/>
      </g>
     </g>
    </g>
    <g id="xtick_16">
     <g id="line2d_27">
      <path clip-path="url(#p2b577d0c24)" d="M 885.979566 315.9 
L 885.979566 71.28 
" style="fill:none;stroke:#cccccc;stroke-linecap:round;stroke-opacity:0.2;stroke-width:0.8;"/>
     </g>
     <g id="text_24">
      <!-- 150 -->
      <g style="fill:#262626;" transform="translate(873.967941 339.80725)scale(0.144 -0.144)">
       <use xlink:href="#ArialMT-49"/>
       <use x="55.615234" xlink:href="#ArialMT-53"/>
       <use x="111.230469" xlink:href="#ArialMT-48"/>
      </g>
     </g>
    </g>
    <g id="xtick_17">
     <g id="line2d_28">
      <path clip-path="url(#p2b577d0c24)" d="M 935.472428 315.9 
L 935.472428 71.28 
" style="fill:none;stroke:#cccccc;stroke-linecap:round;stroke-opacity:0.2;stroke-width:0.8;"/>
     </g>
     <g id="text_25">
      <!-- 175 -->
      <g style="fill:#262626;" transform="translate(923.460803 339.80725)scale(0.144 -0.144)">
       <use xlink:href="#ArialMT-49"/>
       <use x="55.615234" xlink:href="#ArialMT-55"/>
       <use x="111.230469" xlink:href="#ArialMT-53"/>
      </g>
     </g>
    </g>
    <g id="xtick_18">
     <g id="line2d_29">
      <path clip-path="url(#p2b577d0c24)" d="M 984.965291 315.9 
L 984.965291 71.28 
" style="fill:none;stroke:#cccccc;stroke-linecap:round;stroke-opacity:0.2;stroke-width:0.8;"/>
     </g>
     <g id="text_26">
      <!-- 200 -->
      <g style="fill:#262626;" transform="translate(972.953666 339.80725)scale(0.144 -0.144)">
       <use xlink:href="#ArialMT-50"/>
       <use x="55.615234" xlink:href="#ArialMT-48"/>
       <use x="111.230469" xlink:href="#ArialMT-48"/>
      </g>
     </g>
    </g>
    <g id="text_27">
     <!-- Number of Frames (in millions) -->
     <g style="fill:#262626;" transform="translate(688.579966 357.152)scale(0.144 -0.144)">
      <use xlink:href="#ArialMT-78"/>
      <use x="72.216797" xlink:href="#ArialMT-117"/>
      <use x="127.832031" xlink:href="#ArialMT-109"/>
      <use x="211.132812" xlink:href="#ArialMT-98"/>
      <use x="266.748047" xlink:href="#ArialMT-101"/>
      <use x="322.363281" xlink:href="#ArialMT-114"/>
      <use x="355.664062" xlink:href="#ArialMT-32"/>
      <use x="383.447266" xlink:href="#ArialMT-111"/>
      <use x="439.0625" xlink:href="#ArialMT-102"/>
      <use x="466.845703" xlink:href="#ArialMT-32"/>
      <use x="494.628906" xlink:href="#ArialMT-70"/>
      <use x="555.712891" xlink:href="#ArialMT-114"/>
      <use x="589.013672" xlink:href="#ArialMT-97"/>
      <use x="644.628906" xlink:href="#ArialMT-109"/>
      <use x="727.929688" xlink:href="#ArialMT-101"/>
      <use x="783.544922" xlink:href="#ArialMT-115"/>
      <use x="833.544922" xlink:href="#ArialMT-32"/>
      <use x="861.328125" xlink:href="#ArialMT-40"/>
      <use x="894.628906" xlink:href="#ArialMT-105"/>
      <use x="916.845703" xlink:href="#ArialMT-110"/>
      <use x="972.460938" xlink:href="#ArialMT-32"/>
      <use x="1000.244141" xlink:href="#ArialMT-109"/>
      <use x="1083.544922" xlink:href="#ArialMT-105"/>
      <use x="1105.761719" xlink:href="#ArialMT-108"/>
      <use x="1127.978516" xlink:href="#ArialMT-108"/>
      <use x="1150.195312" xlink:href="#ArialMT-105"/>
      <use x="1172.412109" xlink:href="#ArialMT-111"/>
      <use x="1228.027344" xlink:href="#ArialMT-110"/>
      <use x="1283.642578" xlink:href="#ArialMT-115"/>
      <use x="1333.642578" xlink:href="#ArialMT-41"/>
     </g>
    </g>
   </g>
   <g id="matplotlib.axis_4">
    <g id="ytick_7">
     <g id="line2d_30">
      <path clip-path="url(#p2b577d0c24)" d="M 571.402932 305.041313 
L 1002.58475 305.041313 
" style="fill:none;stroke:#cccccc;stroke-linecap:round;stroke-opacity:0.2;stroke-width:0.8;"/>
     </g>
     <g id="text_28">
      <!-- 0.00 -->
      <g style="fill:#262626;" transform="translate(529.779182 310.194938)scale(0.144 -0.144)">
       <defs>
        <path d="M 9.078125 0 
L 9.078125 10.015625 
L 19.09375 10.015625 
L 19.09375 0 
z
" id="ArialMT-46"/>
       </defs>
       <use xlink:href="#ArialMT-48"/>
       <use x="55.615234" xlink:href="#ArialMT-46"/>
       <use x="83.398438" xlink:href="#ArialMT-48"/>
       <use x="139.013672" xlink:href="#ArialMT-48"/>
      </g>
     </g>
    </g>
    <g id="ytick_8">
     <g id="line2d_31">
      <path clip-path="url(#p2b577d0c24)" d="M 571.402932 269.817597 
L 1002.58475 269.817597 
" style="fill:none;stroke:#cccccc;stroke-linecap:round;stroke-opacity:0.2;stroke-width:0.8;"/>
     </g>
     <g id="text_29">
      <!-- 0.25 -->
      <g style="fill:#262626;" transform="translate(529.779182 274.971222)scale(0.144 -0.144)">
       <use xlink:href="#ArialMT-48"/>
       <use x="55.615234" xlink:href="#ArialMT-46"/>
       <use x="83.398438" xlink:href="#ArialMT-50"/>
       <use x="139.013672" xlink:href="#ArialMT-53"/>
      </g>
     </g>
    </g>
    <g id="ytick_9">
     <g id="line2d_32">
      <path clip-path="url(#p2b577d0c24)" d="M 571.402932 234.593881 
L 1002.58475 234.593881 
" style="fill:none;stroke:#cccccc;stroke-linecap:round;stroke-opacity:0.2;stroke-width:0.8;"/>
     </g>
     <g id="text_30">
      <!-- 0.50 -->
      <g style="fill:#262626;" transform="translate(529.779182 239.747506)scale(0.144 -0.144)">
       <use xlink:href="#ArialMT-48"/>
       <use x="55.615234" xlink:href="#ArialMT-46"/>
       <use x="83.398438" xlink:href="#ArialMT-53"/>
       <use x="139.013672" xlink:href="#ArialMT-48"/>
      </g>
     </g>
    </g>
    <g id="ytick_10">
     <g id="line2d_33">
      <path clip-path="url(#p2b577d0c24)" d="M 571.402932 199.370164 
L 1002.58475 199.370164 
" style="fill:none;stroke:#cccccc;stroke-linecap:round;stroke-opacity:0.2;stroke-width:0.8;"/>
     </g>
     <g id="text_31">
      <!-- 0.75 -->
      <g style="fill:#262626;" transform="translate(529.779182 204.523789)scale(0.144 -0.144)">
       <use xlink:href="#ArialMT-48"/>
       <use x="55.615234" xlink:href="#ArialMT-46"/>
       <use x="83.398438" xlink:href="#ArialMT-55"/>
       <use x="139.013672" xlink:href="#ArialMT-53"/>
      </g>
     </g>
    </g>
    <g id="ytick_11">
     <g id="line2d_34">
      <path clip-path="url(#p2b577d0c24)" d="M 571.402932 164.146448 
L 1002.58475 164.146448 
" style="fill:none;stroke:#cccccc;stroke-linecap:round;stroke-opacity:0.2;stroke-width:0.8;"/>
     </g>
     <g id="text_32">
      <!-- 1.00 -->
      <g style="fill:#262626;" transform="translate(529.779182 169.300073)scale(0.144 -0.144)">
       <use xlink:href="#ArialMT-49"/>
       <use x="55.615234" xlink:href="#ArialMT-46"/>
       <use x="83.398438" xlink:href="#ArialMT-48"/>
       <use x="139.013672" xlink:href="#ArialMT-48"/>
      </g>
     </g>
    </g>
    <g id="ytick_12">
     <g id="line2d_35">
      <path clip-path="url(#p2b577d0c24)" d="M 571.402932 128.922732 
L 1002.58475 128.922732 
" style="fill:none;stroke:#cccccc;stroke-linecap:round;stroke-opacity:0.2;stroke-width:0.8;"/>
     </g>
     <g id="text_33">
      <!-- 1.25 -->
      <g style="fill:#262626;" transform="translate(529.779182 134.076357)scale(0.144 -0.144)">
       <use xlink:href="#ArialMT-49"/>
       <use x="55.615234" xlink:href="#ArialMT-46"/>
       <use x="83.398438" xlink:href="#ArialMT-50"/>
       <use x="139.013672" xlink:href="#ArialMT-53"/>
      </g>
     </g>
    </g>
    <g id="ytick_13">
     <g id="line2d_36">
      <path clip-path="url(#p2b577d0c24)" d="M 571.402932 93.699016 
L 1002.58475 93.699016 
" style="fill:none;stroke:#cccccc;stroke-linecap:round;stroke-opacity:0.2;stroke-width:0.8;"/>
     </g>
     <g id="text_34">
      <!-- 1.50 -->
      <g style="fill:#262626;" transform="translate(529.779182 98.852641)scale(0.144 -0.144)">
       <use xlink:href="#ArialMT-49"/>
       <use x="55.615234" xlink:href="#ArialMT-46"/>
       <use x="83.398438" xlink:href="#ArialMT-53"/>
       <use x="139.013672" xlink:href="#ArialMT-48"/>
      </g>
     </g>
    </g>
    <g id="text_35">
     <!-- Median -->
     <g style="fill:#262626;" transform="translate(522.917182 217.202625)rotate(-90)scale(0.144 -0.144)">
      <defs>
       <path d="M 40.234375 0 
L 40.234375 6.546875 
Q 35.296875 -1.171875 25.734375 -1.171875 
Q 19.53125 -1.171875 14.328125 2.25 
Q 9.125 5.671875 6.265625 11.796875 
Q 3.421875 17.921875 3.421875 25.875 
Q 3.421875 33.640625 6 39.96875 
Q 8.59375 46.296875 13.765625 49.65625 
Q 18.953125 53.03125 25.34375 53.03125 
Q 30.03125 53.03125 33.6875 51.046875 
Q 37.359375 49.078125 39.65625 45.90625 
L 39.65625 71.578125 
L 48.390625 71.578125 
L 48.390625 0 
z
M 12.453125 25.875 
Q 12.453125 15.921875 16.640625 10.984375 
Q 20.84375 6.0625 26.5625 6.0625 
Q 32.328125 6.0625 36.34375 10.765625 
Q 40.375 15.484375 40.375 25.140625 
Q 40.375 35.796875 36.265625 40.765625 
Q 32.171875 45.75 26.171875 45.75 
Q 20.3125 45.75 16.375 40.96875 
Q 12.453125 36.1875 12.453125 25.875 
z
" id="ArialMT-100"/>
      </defs>
      <use xlink:href="#ArialMT-77"/>
      <use x="83.300781" xlink:href="#ArialMT-101"/>
      <use x="138.916016" xlink:href="#ArialMT-100"/>
      <use x="194.53125" xlink:href="#ArialMT-105"/>
      <use x="216.748047" xlink:href="#ArialMT-97"/>
      <use x="272.363281" xlink:href="#ArialMT-110"/>
     </g>
    </g>
   </g>
   <g id="PolyCollection_6">
    <defs>
     <path d="M 591.002105 -63.00793 
L 591.002105 -62.696661 
L 608.819536 -76.404993 
L 638.515253 -104.116835 
L 688.008116 -124.847406 
L 737.500978 -137.542919 
L 786.993841 -147.311919 
L 836.486703 -148.324782 
L 885.979566 -148.637799 
L 935.472428 -148.010068 
L 982.985576 -152.520029 
L 982.985576 -158.535722 
L 982.985576 -158.535722 
L 935.472428 -156.50182 
L 885.979566 -156.494253 
L 836.486703 -154.530584 
L 786.993841 -153.057575 
L 737.500978 -147.711568 
L 688.008116 -137.675541 
L 638.515253 -110.770877 
L 608.819536 -79.813923 
L 591.002105 -63.00793 
z
" id="m77759b87f6" style="stroke:#949494;stroke-opacity:0.2;"/>
    </defs>
    <g clip-path="url(#p2b577d0c24)">
     <use style="fill:#949494;fill-opacity:0.2;stroke:#949494;stroke-opacity:0.2;" x="0" xlink:href="#m77759b87f6" y="367.38275"/>
    </g>
   </g>
   <g id="PolyCollection_7">
    <defs>
     <path d="M 591.002105 -62.92192 
L 591.002105 -62.601841 
L 608.819536 -91.015629 
L 638.515253 -122.482865 
L 688.008116 -155.825376 
L 737.500978 -174.609809 
L 786.993841 -196.809549 
L 836.486703 -201.52086 
L 885.979566 -200.497606 
L 935.472428 -202.933009 
L 982.985576 -204.104326 
L 982.985576 -221.576797 
L 982.985576 -221.576797 
L 935.472428 -220.674852 
L 885.979566 -214.922281 
L 836.486703 -212.330295 
L 786.993841 -207.564014 
L 737.500978 -191.367856 
L 688.008116 -168.141955 
L 638.515253 -134.766749 
L 608.819536 -96.83784 
L 591.002105 -62.92192 
z
" id="m973b3368c0" style="stroke:#0173b2;stroke-opacity:0.2;"/>
    </defs>
    <g clip-path="url(#p2b577d0c24)">
     <use style="fill:#0173b2;fill-opacity:0.2;stroke:#0173b2;stroke-opacity:0.2;" x="0" xlink:href="#m973b3368c0" y="367.38275"/>
    </g>
   </g>
   <g id="PolyCollection_8">
    <defs>
     <path d="M 591.002105 -65.509349 
L 591.002105 -65.017827 
L 608.819536 -147.290367 
L 638.515253 -210.142221 
L 688.008116 -221.695665 
L 737.500978 -225.746516 
L 786.993841 -228.366655 
L 836.486703 -228.072125 
L 885.979566 -227.507619 
L 935.472428 -232.615317 
L 982.985576 -236.798635 
L 982.985576 -256.556465 
L 982.985576 -256.556465 
L 935.472428 -249.922801 
L 885.979566 -245.670474 
L 836.486703 -237.679025 
L 786.993841 -238.4922 
L 737.500978 -241.017385 
L 688.008116 -231.169951 
L 638.515253 -220.992773 
L 608.819536 -151.949683 
L 591.002105 -65.509349 
z
" id="m07e98d0e46" style="stroke:#029e73;stroke-opacity:0.2;"/>
    </defs>
    <g clip-path="url(#p2b577d0c24)">
     <use style="fill:#029e73;fill-opacity:0.2;stroke:#029e73;stroke-opacity:0.2;" x="0" xlink:href="#m07e98d0e46" y="367.38275"/>
    </g>
   </g>
   <g id="PolyCollection_9">
    <defs>
     <path d="M 591.002105 -63.13878 
L 591.002105 -62.745875 
L 608.819536 -116.837857 
L 638.515253 -195.536941 
L 688.008116 -221.051568 
L 737.500978 -228.894565 
L 786.993841 -242.859921 
L 836.486703 -251.280305 
L 885.979566 -259.393236 
L 935.472428 -265.272535 
L 982.985576 -264.705708 
L 982.985576 -284.983659 
L 982.985576 -284.983659 
L 935.472428 -278.025468 
L 885.979566 -272.167775 
L 836.486703 -265.895502 
L 786.993841 -254.909494 
L 737.500978 -245.120617 
L 688.008116 -234.125058 
L 638.515253 -207.204813 
L 608.819536 -130.753631 
L 591.002105 -63.13878 
z
" id="m033c5b7651" style="stroke:#d55e00;stroke-opacity:0.2;"/>
    </defs>
    <g clip-path="url(#p2b577d0c24)">
     <use style="fill:#d55e00;fill-opacity:0.2;stroke:#d55e00;stroke-opacity:0.2;" x="0" xlink:href="#m033c5b7651" y="367.38275"/>
    </g>
   </g>
   <g id="PolyCollection_10">
    <defs>
     <path d="M 591.002105 -63.360494 
L 591.002105 -62.915933 
L 608.819536 -73.870885 
L 638.515253 -115.135654 
L 688.008116 -167.140368 
L 737.500978 -191.363734 
L 786.993841 -211.719326 
L 836.486703 -221.35797 
L 885.979566 -236.482852 
L 935.472428 -237.626814 
L 982.985576 -241.954757 
L 982.985576 -257.079922 
L 982.985576 -257.079922 
L 935.472428 -251.696524 
L 885.979566 -249.958028 
L 836.486703 -243.648293 
L 786.993841 -226.962115 
L 737.500978 -211.280343 
L 688.008116 -171.560865 
L 638.515253 -125.792352 
L 608.819536 -83.267552 
L 591.002105 -63.360494 
z
" id="me7020dbc5b" style="stroke:#cc78bc;stroke-opacity:0.2;"/>
    </defs>
    <g clip-path="url(#p2b577d0c24)">
     <use style="fill:#cc78bc;fill-opacity:0.2;stroke:#cc78bc;stroke-opacity:0.2;" x="0" xlink:href="#me7020dbc5b" y="367.38275"/>
    </g>
   </g>
   <g id="line2d_37">
    <path clip-path="url(#p2b577d0c24)" d="M 591.002105 304.577997 
L 608.819536 288.430688 
L 638.515253 262.349946 
L 688.008116 236.328625 
L 737.500978 224.36057 
L 786.993841 215.515997 
L 836.486703 214.616684 
L 885.979566 212.218061 
L 935.472428 212.700812 
L 982.985576 212.972621 
" style="fill:none;stroke:#949494;stroke-linecap:round;stroke-width:2;"/>
    <g clip-path="url(#p2b577d0c24)">
     <use style="fill:#949494;stroke:#949494;" x="591.002105" xlink:href="#m8c7900b6bd" y="304.577997"/>
     <use style="fill:#949494;stroke:#949494;" x="608.819536" xlink:href="#m8c7900b6bd" y="288.430688"/>
     <use style="fill:#949494;stroke:#949494;" x="638.515253" xlink:href="#m8c7900b6bd" y="262.349946"/>
     <use style="fill:#949494;stroke:#949494;" x="688.008116" xlink:href="#m8c7900b6bd" y="236.328625"/>
     <use style="fill:#949494;stroke:#949494;" x="737.500978" xlink:href="#m8c7900b6bd" y="224.36057"/>
     <use style="fill:#949494;stroke:#949494;" x="786.993841" xlink:href="#m8c7900b6bd" y="215.515997"/>
     <use style="fill:#949494;stroke:#949494;" x="836.486703" xlink:href="#m8c7900b6bd" y="214.616684"/>
     <use style="fill:#949494;stroke:#949494;" x="885.979566" xlink:href="#m8c7900b6bd" y="212.218061"/>
     <use style="fill:#949494;stroke:#949494;" x="935.472428" xlink:href="#m8c7900b6bd" y="212.700812"/>
     <use style="fill:#949494;stroke:#949494;" x="982.985576" xlink:href="#m8c7900b6bd" y="212.972621"/>
    </g>
   </g>
   <g id="line2d_38">
    <path clip-path="url(#p2b577d0c24)" d="M 591.002105 304.719484 
L 608.819536 274.078814 
L 638.515253 235.346536 
L 688.008116 203.57448 
L 737.500978 185.464991 
L 786.993841 164.89187 
L 836.486703 162.682776 
L 885.979566 161.296079 
L 935.472428 155.103406 
L 982.985576 151.138075 
" style="fill:none;stroke:#0173b2;stroke-linecap:round;stroke-width:2;"/>
    <g clip-path="url(#p2b577d0c24)">
     <use style="fill:#0173b2;stroke:#0173b2;" x="591.002105" xlink:href="#me997902346" y="304.719484"/>
     <use style="fill:#0173b2;stroke:#0173b2;" x="608.819536" xlink:href="#me997902346" y="274.078814"/>
     <use style="fill:#0173b2;stroke:#0173b2;" x="638.515253" xlink:href="#me997902346" y="235.346536"/>
     <use style="fill:#0173b2;stroke:#0173b2;" x="688.008116" xlink:href="#me997902346" y="203.57448"/>
     <use style="fill:#0173b2;stroke:#0173b2;" x="737.500978" xlink:href="#me997902346" y="185.464991"/>
     <use style="fill:#0173b2;stroke:#0173b2;" x="786.993841" xlink:href="#me997902346" y="164.89187"/>
     <use style="fill:#0173b2;stroke:#0173b2;" x="836.486703" xlink:href="#me997902346" y="162.682776"/>
     <use style="fill:#0173b2;stroke:#0173b2;" x="885.979566" xlink:href="#me997902346" y="161.296079"/>
     <use style="fill:#0173b2;stroke:#0173b2;" x="935.472428" xlink:href="#me997902346" y="155.103406"/>
     <use style="fill:#0173b2;stroke:#0173b2;" x="982.985576" xlink:href="#me997902346" y="151.138075"/>
    </g>
   </g>
   <g id="line2d_39">
    <path clip-path="url(#p2b577d0c24)" d="M 591.002105 302.233996 
L 608.819536 218.266001 
L 638.515253 147.411614 
L 688.008116 143.2841 
L 737.500978 130.265817 
L 786.993841 137.285249 
L 836.486703 133.359294 
L 885.979566 134.93456 
L 935.472428 131.28666 
L 982.985576 123.567771 
" style="fill:none;stroke:#029e73;stroke-linecap:round;stroke-width:2;"/>
    <g clip-path="url(#p2b577d0c24)">
     <use style="fill:#029e73;stroke:#029e73;" x="591.002105" xlink:href="#m0186bd0744" y="302.233996"/>
     <use style="fill:#029e73;stroke:#029e73;" x="608.819536" xlink:href="#m0186bd0744" y="218.266001"/>
     <use style="fill:#029e73;stroke:#029e73;" x="638.515253" xlink:href="#m0186bd0744" y="147.411614"/>
     <use style="fill:#029e73;stroke:#029e73;" x="688.008116" xlink:href="#m0186bd0744" y="143.2841"/>
     <use style="fill:#029e73;stroke:#029e73;" x="737.500978" xlink:href="#m0186bd0744" y="130.265817"/>
     <use style="fill:#029e73;stroke:#029e73;" x="786.993841" xlink:href="#m0186bd0744" y="137.285249"/>
     <use style="fill:#029e73;stroke:#029e73;" x="836.486703" xlink:href="#m0186bd0744" y="133.359294"/>
     <use style="fill:#029e73;stroke:#029e73;" x="885.979566" xlink:href="#m0186bd0744" y="134.93456"/>
     <use style="fill:#029e73;stroke:#029e73;" x="935.472428" xlink:href="#m0186bd0744" y="131.28666"/>
     <use style="fill:#029e73;stroke:#029e73;" x="982.985576" xlink:href="#m0186bd0744" y="123.567771"/>
    </g>
   </g>
   <g id="line2d_40">
    <path clip-path="url(#p2b577d0c24)" d="M 591.002105 304.481615 
L 608.819536 249.099272 
L 638.515253 168.101382 
L 688.008116 145.320715 
L 737.500978 130.977299 
L 786.993841 121.353082 
L 836.486703 109.20264 
L 885.979566 101.363441 
L 935.472428 95.274529 
L 982.985576 97.584462 
" style="fill:none;stroke:#d55e00;stroke-linecap:round;stroke-width:2;"/>
    <g clip-path="url(#p2b577d0c24)">
     <use style="fill:#d55e00;stroke:#d55e00;" x="591.002105" xlink:href="#mc4f9f96581" y="304.481615"/>
     <use style="fill:#d55e00;stroke:#d55e00;" x="608.819536" xlink:href="#mc4f9f96581" y="249.099272"/>
     <use style="fill:#d55e00;stroke:#d55e00;" x="638.515253" xlink:href="#mc4f9f96581" y="168.101382"/>
     <use style="fill:#d55e00;stroke:#d55e00;" x="688.008116" xlink:href="#mc4f9f96581" y="145.320715"/>
     <use style="fill:#d55e00;stroke:#d55e00;" x="737.500978" xlink:href="#mc4f9f96581" y="130.977299"/>
     <use style="fill:#d55e00;stroke:#d55e00;" x="786.993841" xlink:href="#mc4f9f96581" y="121.353082"/>
     <use style="fill:#d55e00;stroke:#d55e00;" x="836.486703" xlink:href="#mc4f9f96581" y="109.20264"/>
     <use style="fill:#d55e00;stroke:#d55e00;" x="885.979566" xlink:href="#mc4f9f96581" y="101.363441"/>
     <use style="fill:#d55e00;stroke:#d55e00;" x="935.472428" xlink:href="#mc4f9f96581" y="95.274529"/>
     <use style="fill:#d55e00;stroke:#d55e00;" x="982.985576" xlink:href="#mc4f9f96581" y="97.584462"/>
    </g>
   </g>
   <g id="line2d_41">
    <path clip-path="url(#p2b577d0c24)" d="M 591.002105 304.203851 
L 608.819536 291.518401 
L 638.515253 244.107802 
L 688.008116 197.799612 
L 737.500978 160.097523 
L 786.993841 146.040534 
L 836.486703 136.371479 
L 885.979566 120.770874 
L 935.472428 120.510899 
L 982.985576 117.729034 
" style="fill:none;stroke:#cc78bc;stroke-linecap:round;stroke-width:2;"/>
    <g clip-path="url(#p2b577d0c24)">
     <use style="fill:#cc78bc;stroke:#cc78bc;" x="591.002105" xlink:href="#m75f847a5d0" y="304.203851"/>
     <use style="fill:#cc78bc;stroke:#cc78bc;" x="608.819536" xlink:href="#m75f847a5d0" y="291.518401"/>
     <use style="fill:#cc78bc;stroke:#cc78bc;" x="638.515253" xlink:href="#m75f847a5d0" y="244.107802"/>
     <use style="fill:#cc78bc;stroke:#cc78bc;" x="688.008116" xlink:href="#m75f847a5d0" y="197.799612"/>
     <use style="fill:#cc78bc;stroke:#cc78bc;" x="737.500978" xlink:href="#m75f847a5d0" y="160.097523"/>
     <use style="fill:#cc78bc;stroke:#cc78bc;" x="786.993841" xlink:href="#m75f847a5d0" y="146.040534"/>
     <use style="fill:#cc78bc;stroke:#cc78bc;" x="836.486703" xlink:href="#m75f847a5d0" y="136.371479"/>
     <use style="fill:#cc78bc;stroke:#cc78bc;" x="885.979566" xlink:href="#m75f847a5d0" y="120.770874"/>
     <use style="fill:#cc78bc;stroke:#cc78bc;" x="935.472428" xlink:href="#m75f847a5d0" y="120.510899"/>
     <use style="fill:#cc78bc;stroke:#cc78bc;" x="982.985576" xlink:href="#m75f847a5d0" y="117.729034"/>
    </g>
   </g>
   <g id="patch_6">
    <path d="M 561.402932 315.9 
L 561.402932 71.28 
" style="fill:none;stroke:#262626;stroke-linecap:square;stroke-linejoin:miter;stroke-width:2;"/>
   </g>
   <g id="patch_7">
    <path d="M 571.402932 325.9 
L 1002.58475 325.9 
" style="fill:none;stroke:#262626;stroke-linecap:square;stroke-linejoin:miter;stroke-width:2;"/>
   </g>
  </g>
  <g id="legend_1">
   <g id="patch_8">
    <path d="M 267.279125 31.88925 
L 758.690375 31.88925 
Q 761.570375 31.88925 761.570375 29.00925 
L 761.570375 10.08 
Q 761.570375 7.2 758.690375 7.2 
L 267.279125 7.2 
Q 264.399125 7.2 264.399125 10.08 
L 264.399125 29.00925 
Q 264.399125 31.88925 267.279125 31.88925 
z
" style="fill:#ffffff;opacity:0.8;stroke:#cccccc;stroke-linejoin:miter;"/>
   </g>
   <g id="patch_9">
    <path d="M 270.159125 23.26725 
L 298.959125 23.26725 
L 298.959125 13.18725 
L 270.159125 13.18725 
z
" style="fill:#949494;opacity:0.75;stroke:#949494;stroke-linejoin:miter;"/>
   </g>
   <g id="text_36">
    <!-- DQN -->
    <g style="fill:#262626;" transform="translate(310.479125 23.26725)scale(0.144 -0.144)">
     <defs>
      <path d="M 7.71875 0 
L 7.71875 71.578125 
L 32.375 71.578125 
Q 40.71875 71.578125 45.125 70.5625 
Q 51.265625 69.140625 55.609375 65.4375 
Q 61.28125 60.640625 64.078125 53.1875 
Q 66.890625 45.75 66.890625 36.1875 
Q 66.890625 28.03125 64.984375 21.734375 
Q 63.09375 15.4375 60.109375 11.296875 
Q 57.125 7.171875 53.578125 4.796875 
Q 50.046875 2.4375 45.046875 1.21875 
Q 40.046875 0 33.546875 0 
z
M 17.1875 8.453125 
L 32.46875 8.453125 
Q 39.546875 8.453125 43.578125 9.765625 
Q 47.609375 11.078125 50 13.484375 
Q 53.375 16.84375 55.25 22.53125 
Q 57.125 28.21875 57.125 36.328125 
Q 57.125 47.5625 53.4375 53.59375 
Q 49.75 59.625 44.484375 61.671875 
Q 40.671875 63.140625 32.234375 63.140625 
L 17.1875 63.140625 
z
" id="ArialMT-68"/>
      <path d="M 61.96875 7.671875 
Q 68.5625 3.125 74.125 1.03125 
L 71.34375 -5.5625 
Q 63.625 -2.78125 55.953125 3.21875 
Q 48 -1.21875 38.375 -1.21875 
Q 28.65625 -1.21875 20.75 3.46875 
Q 12.84375 8.15625 8.5625 16.640625 
Q 4.296875 25.140625 4.296875 35.796875 
Q 4.296875 46.390625 8.59375 55.078125 
Q 12.890625 63.765625 20.828125 68.3125 
Q 28.765625 72.859375 38.578125 72.859375 
Q 48.484375 72.859375 56.4375 68.140625 
Q 64.40625 63.421875 68.578125 54.953125 
Q 72.75 46.484375 72.75 35.84375 
Q 72.75 27 70.0625 19.9375 
Q 67.390625 12.890625 61.96875 7.671875 
z
M 41.109375 19.78125 
Q 49.3125 17.484375 54.640625 12.9375 
Q 62.984375 20.5625 62.984375 35.84375 
Q 62.984375 44.53125 60.03125 51.015625 
Q 57.078125 57.515625 51.390625 61.109375 
Q 45.703125 64.703125 38.625 64.703125 
Q 28.03125 64.703125 21.046875 57.453125 
Q 14.0625 50.203125 14.0625 35.796875 
Q 14.0625 21.828125 20.96875 14.359375 
Q 27.875 6.890625 38.625 6.890625 
Q 43.703125 6.890625 48.1875 8.796875 
Q 43.75 11.671875 38.8125 12.890625 
z
" id="ArialMT-81"/>
     </defs>
     <use xlink:href="#ArialMT-68"/>
     <use x="72.216797" xlink:href="#ArialMT-81"/>
     <use x="150" xlink:href="#ArialMT-78"/>
    </g>
   </g>
   <g id="patch_10">
    <path d="M 371.278625 23.26725 
L 400.078625 23.26725 
L 400.078625 13.18725 
L 371.278625 13.18725 
z
" style="fill:#0173b2;opacity:0.75;stroke:#0173b2;stroke-linejoin:miter;"/>
   </g>
   <g id="text_37">
    <!-- C51 -->
    <g style="fill:#262626;" transform="translate(411.598625 23.26725)scale(0.144 -0.144)">
     <defs>
      <path d="M 58.796875 25.09375 
L 68.265625 22.703125 
Q 65.28125 11.03125 57.546875 4.90625 
Q 49.8125 -1.21875 38.625 -1.21875 
Q 27.046875 -1.21875 19.796875 3.484375 
Q 12.546875 8.203125 8.765625 17.140625 
Q 4.984375 26.078125 4.984375 36.328125 
Q 4.984375 47.515625 9.25 55.828125 
Q 13.53125 64.15625 21.40625 68.46875 
Q 29.296875 72.796875 38.765625 72.796875 
Q 49.515625 72.796875 56.828125 67.328125 
Q 64.15625 61.859375 67.046875 51.953125 
L 57.71875 49.75 
Q 55.21875 57.5625 50.484375 61.125 
Q 45.75 64.703125 38.578125 64.703125 
Q 30.328125 64.703125 24.78125 60.734375 
Q 19.234375 56.78125 16.984375 50.109375 
Q 14.75 43.453125 14.75 36.375 
Q 14.75 27.25 17.40625 20.4375 
Q 20.0625 13.625 25.671875 10.25 
Q 31.296875 6.890625 37.84375 6.890625 
Q 45.796875 6.890625 51.3125 11.46875 
Q 56.84375 16.0625 58.796875 25.09375 
z
" id="ArialMT-67"/>
     </defs>
     <use xlink:href="#ArialMT-67"/>
     <use x="72.216797" xlink:href="#ArialMT-53"/>
     <use x="127.832031" xlink:href="#ArialMT-49"/>
    </g>
   </g>
   <g id="patch_11">
    <path d="M 466.813625 23.26725 
L 495.613625 23.26725 
L 495.613625 13.18725 
L 466.813625 13.18725 
z
" style="fill:#029e73;opacity:0.75;stroke:#029e73;stroke-linejoin:miter;"/>
   </g>
   <g id="text_38">
    <!-- IQN -->
    <g style="fill:#262626;" transform="translate(507.133625 23.26725)scale(0.144 -0.144)">
     <defs>
      <path d="M 9.328125 0 
L 9.328125 71.578125 
L 18.796875 71.578125 
L 18.796875 0 
z
" id="ArialMT-73"/>
     </defs>
     <use xlink:href="#ArialMT-73"/>
     <use x="27.783203" xlink:href="#ArialMT-81"/>
     <use x="105.566406" xlink:href="#ArialMT-78"/>
    </g>
   </g>
   <g id="patch_12">
    <path d="M 561.534125 23.26725 
L 590.334125 23.26725 
L 590.334125 13.18725 
L 561.534125 13.18725 
z
" style="fill:#d55e00;opacity:0.75;stroke:#d55e00;stroke-linejoin:miter;"/>
   </g>
   <g id="text_39">
    <!-- Rainbow -->
    <g style="fill:#262626;" transform="translate(601.854125 23.26725)scale(0.144 -0.144)">
     <defs>
      <path d="M 7.859375 0 
L 7.859375 71.578125 
L 39.59375 71.578125 
Q 49.171875 71.578125 54.140625 69.640625 
Q 59.125 67.71875 62.109375 62.828125 
Q 65.09375 57.953125 65.09375 52.046875 
Q 65.09375 44.4375 60.15625 39.203125 
Q 55.21875 33.984375 44.921875 32.5625 
Q 48.6875 30.765625 50.640625 29 
Q 54.78125 25.203125 58.5 19.484375 
L 70.953125 0 
L 59.03125 0 
L 49.5625 14.890625 
Q 45.40625 21.34375 42.71875 24.75 
Q 40.046875 28.171875 37.921875 29.53125 
Q 35.796875 30.90625 33.59375 31.453125 
Q 31.984375 31.78125 28.328125 31.78125 
L 17.328125 31.78125 
L 17.328125 0 
z
M 17.328125 39.984375 
L 37.703125 39.984375 
Q 44.1875 39.984375 47.84375 41.328125 
Q 51.515625 42.671875 53.421875 45.625 
Q 55.328125 48.578125 55.328125 52.046875 
Q 55.328125 57.125 51.640625 60.390625 
Q 47.953125 63.671875 39.984375 63.671875 
L 17.328125 63.671875 
z
" id="ArialMT-82"/>
      <path d="M 16.15625 0 
L 0.296875 51.859375 
L 9.375 51.859375 
L 17.625 21.921875 
L 20.703125 10.796875 
Q 20.90625 11.625 23.390625 21.484375 
L 31.640625 51.859375 
L 40.671875 51.859375 
L 48.4375 21.78125 
L 51.03125 11.859375 
L 54 21.875 
L 62.890625 51.859375 
L 71.4375 51.859375 
L 55.21875 0 
L 46.09375 0 
L 37.84375 31.0625 
L 35.84375 39.890625 
L 25.34375 0 
z
" id="ArialMT-119"/>
     </defs>
     <use xlink:href="#ArialMT-82"/>
     <use x="72.216797" xlink:href="#ArialMT-97"/>
     <use x="127.832031" xlink:href="#ArialMT-105"/>
     <use x="150.048828" xlink:href="#ArialMT-110"/>
     <use x="205.664062" xlink:href="#ArialMT-98"/>
     <use x="261.279297" xlink:href="#ArialMT-111"/>
     <use x="316.894531" xlink:href="#ArialMT-119"/>
    </g>
   </g>
   <g id="patch_13">
    <path d="M 686.683625 23.26725 
L 715.483625 23.26725 
L 715.483625 13.18725 
L 686.683625 13.18725 
z
" style="fill:#cc78bc;opacity:0.75;stroke:#cc78bc;stroke-linejoin:miter;"/>
   </g>
   <g id="text_40">
    <!-- C2D -->
    <g style="fill:#262626;" transform="translate(727.003625 23.26725)scale(0.144 -0.144)">
     <use xlink:href="#ArialMT-67"/>
     <use x="72.216797" xlink:href="#ArialMT-50"/>
     <use x="127.832031" xlink:href="#ArialMT-68"/>
    </g>
   </g>
  </g>
 </g>
 <defs>
  <clipPath id="p54438b5423">
   <rect height="244.62" width="431.181818" x="53.98475" y="71.28"/>
  </clipPath>
  <clipPath id="p2b577d0c24">
   <rect height="244.62" width="431.181818" x="571.402932" y="71.28"/>
  </clipPath>
 </defs>
</svg>
